<svg xmlns="http://www.w3.org/2000/svg" viewBox="0 0 268 125" role="img" aria-label="NDW logo">
  <title>NDW</title>
  <defs>
    <clipPath id="ndw-clip-a"><rect x="158.58" y="44" width="108.7" height="63.59" fill="none" stroke-width="0"/></clipPath>
    <clipPath id="ndw-clip-b"><rect x="82.58" y="16.83" width="65.33" height="90.76" fill="none" stroke-width="0"/></clipPath>
    <clipPath id="ndw-clip-c"><rect y="42.67" width="71.92" height="62.67" fill="none" stroke-width="0"/></clipPath>
  </defs>
  <g clip-path="url(#ndw-clip-a)">
    <path d="M248.25,44.85v30.04c.14,7.14-5.55,13.04-12.7,13.18-6.91.15-12.71-5.17-13.17-12.06v-31.16h-18.49v29.83c.48,7.13-4.91,13.29-12.04,13.77-7.13.48-13.31-4.9-13.79-12.03,0-.21-.02-.41-.04-.6v-30.96h-18.48v29.7c-.19,17.52,13.88,31.86,31.41,32.06,8.38.04,16.38-3.33,22.24-9.3,5.78,6.03,13.78,9.46,22.14,9.52,17.43-.21,31.43-14.44,31.32-31.85v-30.15h-18.4v-.02h0Z" fill="#fe5000" stroke-width="0"/>
  </g>
  <g clip-path="url(#ndw-clip-b)">
    <path d="M128.23,46.08c-4.07-1.89-8.51-2.87-13-2.89-17.54.22-31.6,14.58-31.44,32.1-.51,17.33,13.14,31.77,30.48,32.28,17.35.51,31.81-13.13,32.32-30.45V16.83h-18.37v29.26h.01ZM115.23,88.35c-7.26.08-13.22-5.73-13.31-12.98-.08-7.25,5.74-13.2,13-13.3s13.22,5.73,13.31,12.98c.06,7.19-5.8,13.23-13,13.29Z" fill="#fe5000" stroke-width="0"/>
  </g>
  <g clip-path="url(#ndw-clip-c)">
    <path d="M39.44,43.2H.64v18.66h10.33c-1.94,4.24-2.95,8.84-2.95,13.48v29.55h18.49v-29.85c-.11-7.14,5.58-13.02,12.72-13.14,6.9-.11,12.66,5.19,13.14,12.05v30.94h18.59v-29.85c.13-17.45-13.95-31.72-31.43-31.84h-.09Z" fill="#fe5000" stroke-width="0"/>
  </g>
</svg>
